# xmcd
#
# Track frame offsets: 
#        150
#        14744
#        29049
#        41892
#        59016
#        75760
#        90050
#        107127
#        122037
#        137449
#        153449
#        168929
#        183664
#
# Disc length: 2670 seconds
#
# Revision: 4
# Processed by: cddbd v1.5.2PL0 Copyright (c) Steve Scherf et al.
# Submitted via: ExactAudioCopy v1.0b3
#
DISCID=a50a6c0d
DTITLE=Thomas Rhett - Tangled Up
DYEAR=2015
DGENRE=Country
TTITLE0=Anthem
TTITLE1=Crash and Burn
TTITLE2=South Side
TTITLE3=Die a Happy Man
TTITLE4=Vacation
TTITLE5=Like It's the Last Time
TTITLE6=T-Shirt
TTITLE7=Single Girl
TTITLE8=The Day You Stop Lookin' Back
TTITLE9=Tangled
TTITLE10=Playing with Fire (feat. Jordin Sparks)
TTITLE11=I Feel Good (feat.  LunchMoney Lewis)
TTITLE12=Learned It from the Radio
EXTD=YEAR: 2015
EXTT0=
EXTT1=
EXTT2=
EXTT3=
EXTT4=
EXTT5=
EXTT6=
EXTT7=
EXTT8=
EXTT9=
EXTT10=
EXTT11=
EXTT12=
PLAYORDER=
